<svg width="392" height="240" viewBox="0 0 392 240" fill="none" xmlns="http://www.w3.org/2000/svg">
<path opacity="0.8" fill-rule="evenodd" clip-rule="evenodd" d="M78.8003 45.0323C82.8281 32.3639 86.5765 24.4763 90.0393 21.3666C99.6288 12.7598 112.888 17.444 115.707 18.1149C125.609 20.4781 122.389 4.92658 130.885 1.76551C136.547 -0.340867 141.204 2.23393 144.858 9.4899C148.093 2.72048 153.023 -0.380153 159.648 0.172884C169.587 1.00999 173.065 34.4068 186.722 27.0964C200.382 19.783 217.128 18.1118 224.281 28.9792C225.827 31.3303 226.42 27.6827 236.936 15.2288C247.452 2.77185 257.937 -2.71621 279.449 4.53674C289.23 7.83078 297.274 16.761 303.589 31.3243C303.589 52.11 318.959 64.4158 349.693 68.2327C395.8 73.9595 360.011 123.277 303.589 137.719C247.163 152.164 117.256 159.961 46.7601 123.467C-0.236952 99.1423 10.4431 72.9955 78.7973 45.0323H78.8003Z" fill="url(#paint0_linear_255001_31386)"/>
<path d="M194.41 228.713C241.361 228.713 279.422 219.948 279.422 209.136C279.422 198.324 241.361 189.559 194.41 189.559C147.459 189.559 109.398 198.324 109.398 209.136C109.398 219.948 147.459 228.713 194.41 228.713Z" fill="url(#paint1_linear_255001_31386)"/>
<path opacity="0.675" fill-rule="evenodd" clip-rule="evenodd" d="M337.934 233.564C274.015 249.514 55.8364 231.27 32.6143 222.938C21.3115 218.879 11.1235 211.249 2.05339 200.043C1.03824 198.79 0.400153 197.277 0.212866 195.678C0.0255792 194.08 0.296737 192.461 0.995005 191.009C1.69327 189.558 2.79015 188.332 4.15889 187.475C5.52762 186.617 7.11235 186.162 8.72994 186.163H389.986C397.899 207.13 380.548 222.929 337.934 233.564Z" fill="url(#paint2_linear_255001_31386)"/>
<path d="M259.645 156.67L230.572 122.847C229.885 122.04 229.03 121.39 228.067 120.942C227.104 120.493 226.055 120.257 224.992 120.248H162.479C160.335 120.248 158.296 121.227 156.899 122.847L127.827 156.67V175.238H259.645V156.67Z" fill="url(#paint3_linear_255001_31386)"/>
<path d="M251.407 175.921L225.961 146.462C225.346 145.766 224.588 145.21 223.737 144.832C222.887 144.454 221.965 144.263 221.034 144.271H166.437C164.563 144.271 162.731 145.044 161.51 146.462L136.065 175.921V192.101H251.407V175.921Z" fill="url(#paint4_linear_255001_31386)"/>
<path d="M259.644 196.516C259.644 199.094 258.478 201.412 256.637 202.965L256.264 203.267C254.804 204.368 253.022 204.962 251.191 204.96H136.283C135.244 204.96 134.251 204.772 133.334 204.428L132.878 204.246C131.375 203.581 130.098 202.496 129.201 201.124C128.305 199.751 127.827 198.15 127.827 196.513V156.873H159.809C163.342 156.873 166.188 159.765 166.188 163.273V163.319C166.188 166.83 169.068 169.662 172.6 169.662H214.871C216.569 169.66 218.197 168.989 219.399 167.796C220.601 166.603 221.278 164.984 221.283 163.294C221.283 159.771 224.132 156.873 227.662 156.873H259.648L259.644 196.516Z" fill="url(#paint5_linear_255001_31386)"/>
<defs>
<linearGradient id="paint0_linear_255001_31386" x1="202.705" y1="111.775" x2="202.705" y2="-26.283" gradientUnits="userSpaceOnUse">
<stop stop-color="#DEDEDE" stop-opacity="0"/>
<stop offset="1" stop-color="#A9A9A9" stop-opacity="0.3"/>
</linearGradient>
<linearGradient id="paint1_linear_255001_31386" x1="185.552" y1="228.713" x2="185.552" y2="189.559" gradientUnits="userSpaceOnUse">
<stop stop-color="white" stop-opacity="0"/>
<stop offset="1" stop-color="#96A1C5" stop-opacity="0.373"/>
</linearGradient>
<linearGradient id="paint2_linear_255001_31386" x1="196" y1="239.89" x2="196" y2="175.592" gradientUnits="userSpaceOnUse">
<stop stop-color="white" stop-opacity="0"/>
<stop offset="1" stop-color="#919191" stop-opacity="0.15"/>
</linearGradient>
<linearGradient id="paint3_linear_255001_31386" x1="193.736" y1="120.248" x2="193.736" y2="144.966" gradientUnits="userSpaceOnUse">
<stop stop-color="#5389F5"/>
<stop offset="1" stop-color="#2E3387"/>
</linearGradient>
<linearGradient id="paint4_linear_255001_31386" x1="209.128" y1="192.101" x2="209.128" y2="141.728" gradientUnits="userSpaceOnUse">
<stop stop-color="#DCE9FF"/>
<stop offset="1" stop-color="#B6CFFF"/>
</linearGradient>
<linearGradient id="paint5_linear_255001_31386" x1="193.737" y1="156.873" x2="193.737" y2="204.96" gradientUnits="userSpaceOnUse">
<stop stop-color="#7CA5F7"/>
<stop offset="1" stop-color="#C4D6FC"/>
</linearGradient>
</defs>
</svg>
